<svg width="248" height="62" viewBox="0 0 248 62" fill="none" xmlns="http://www.w3.org/2000/svg">
<path d="M37.6773 1.04873C46.3988 0.98386 59.7074 14.3822 61.1227 23.5102C62.5595 32.8292 61.701 41.4203 56.1692 49.2366C51.6432 55.633 45.5619 59.6871 37.7204 61.4889C37.6737 60.6997 37.6018 60.0475 37.5982 59.4205C37.5982 55.3988 37.5372 51.3771 37.6234 47.3555C37.6557 45.914 37.1097 45.5104 35.7591 45.4491C32.9753 45.3158 30.1663 45.2185 27.4291 44.7284C22.9893 43.9608 19.972 41.1248 18.1328 37.1608C15.0257 30.3968 17.2169 23.3048 23.0647 19.3948C24.7422 18.2705 26.8759 17.6363 28.8911 17.2651C30.9062 16.8939 32.9465 17.157 34.9796 17.1426C37.4222 17.1426 37.5875 16.9624 37.5911 14.4435C37.5911 10.602 37.5911 6.76049 37.5911 2.91181C37.5982 2.33522 37.6485 1.74783 37.6773 1.04873Z" fill="#A7FCF1"/>
<path d="M31.8042 11.2724C27.7739 11.467 24.1639 12.2274 20.9131 14.2563C16.6026 16.9518 13.4991 20.6275 12.1377 25.6149C9.88546 33.8564 12.3353 41.3664 18.6573 46.5593C21.9512 49.262 25.6941 50.8836 30.0729 50.5737C31.4127 50.4764 31.8689 51.0206 31.8222 52.3467C31.7504 54.9233 31.7252 57.5107 31.8222 60.0909C31.8833 61.5937 31.269 61.8927 29.922 61.8675C20.7443 61.7306 13.341 57.9035 7.32073 51.1179C4.5604 47.9641 2.50407 44.2548 1.28964 40.2385C-0.152426 35.398 -0.389229 30.2766 0.599969 25.323C2.396 16.0004 7.65838 8.88684 16.0243 4.11201C20.4569 1.58947 25.1984 0.580449 30.1591 0.148012C31.3912 0.0362994 31.8545 0.465131 31.8186 1.76244C31.7468 4.86517 31.8042 7.97872 31.8042 11.2724Z" fill="#A7FCF1"/>
<path d="M31.0582 24.6778C29.6414 24.6778 28.536 25.2606 27.7422 26.4263C26.9484 27.5818 26.5515 29.1795 26.5515 31.2194C26.5515 35.4598 28.1642 37.5801 31.3898 37.5801C32.3645 37.5801 33.3091 37.4444 34.2235 37.1731C35.1379 36.9018 36.0573 36.5752 36.9818 36.1934V41.2277C35.1429 42.0416 33.0629 42.4486 30.7417 42.4486C27.4156 42.4486 24.8633 41.4839 23.0847 39.5546C21.3162 37.6253 20.4319 34.8368 20.4319 31.1892C20.4319 28.9082 20.859 26.9036 21.7131 25.1752C22.5773 23.4469 23.8132 22.1205 25.421 21.196C27.0388 20.2615 28.938 19.7943 31.1185 19.7943C33.5 19.7943 35.776 20.3118 37.9464 21.3467L36.1226 26.0344C35.3087 25.6525 34.4948 25.331 33.6809 25.0697C32.8669 24.8085 31.9927 24.6778 31.0582 24.6778Z" fill="black"/>
<path d="M61.9121 31.0988C61.9121 34.8067 61.0027 37.6253 59.1839 39.5546C57.3651 41.4839 54.7023 42.4486 51.1954 42.4486C47.7387 42.4486 45.0859 41.4789 43.237 39.5395C41.3981 37.6002 40.4787 34.7766 40.4787 31.0687C40.4787 27.401 41.3931 24.6025 43.2219 22.6731C45.0608 20.7338 47.7286 19.7641 51.2255 19.7641C54.7324 19.7641 57.3903 20.7237 59.199 22.643C61.0077 24.5623 61.9121 27.3809 61.9121 31.0988ZM46.7489 31.0988C46.7489 35.3594 48.2311 37.4896 51.1954 37.4896C52.7026 37.4896 53.818 36.9721 54.5415 35.9371C55.2751 34.9022 55.6418 33.2894 55.6418 31.0988C55.6418 28.8982 55.27 27.2754 54.5264 26.2303C53.7929 25.1752 52.6926 24.6477 51.2255 24.6477C48.2411 24.6477 46.7489 26.7981 46.7489 31.0988Z" fill="black"/>
<path d="M65.8913 20.1108H73.5784C76.5728 20.1108 78.7935 20.5579 80.2405 21.4523C81.6975 22.3365 82.4261 23.7182 82.4261 25.5973C82.4261 26.8332 82.1095 27.8883 81.4765 28.7625C80.8434 29.6367 80.0094 30.1995 78.9744 30.4507V30.6014C80.341 30.9632 81.3308 31.5661 81.9437 32.4101C82.5567 33.2542 82.8632 34.3495 82.8632 35.696C82.8632 37.6956 82.1095 39.2732 80.6023 40.4288C79.105 41.5744 77.0602 42.1471 74.4677 42.1471H65.8913V20.1108ZM71.845 28.5666H73.6387C74.4928 28.5666 75.151 28.3907 75.6132 28.039C76.0855 27.6873 76.3216 27.1648 76.3216 26.4715C76.3216 25.2355 75.3871 24.6175 73.5181 24.6175H71.845V28.5666ZM71.845 32.9226V37.5499H73.9401C75.7991 37.5499 76.7286 36.7662 76.7286 35.1986C76.7286 34.465 76.4774 33.9023 75.9749 33.5104C75.4826 33.1185 74.7641 32.9226 73.8195 32.9226H71.845Z" fill="black"/>
<path d="M105.955 42.1471H99.2171L92.6755 30.9782V42.1471H86.6916V20.1108H92.6755V30.7823L98.9759 20.1108H105.517L98.7197 30.6315L105.955 42.1471Z" fill="black"/>
<path d="M128.835 31.0988C128.835 34.8067 127.926 37.6253 126.107 39.5546C124.288 41.4839 121.625 42.4486 118.118 42.4486C114.662 42.4486 112.009 41.4789 110.16 39.5395C108.321 37.6002 107.402 34.7766 107.402 31.0687C107.402 27.401 108.316 24.6025 110.145 22.6731C111.984 20.7338 114.652 19.7641 118.148 19.7641C121.655 19.7641 124.313 20.7237 126.122 22.643C127.931 24.5623 128.835 27.3809 128.835 31.0988ZM113.672 31.0988C113.672 35.3594 115.154 37.4896 118.118 37.4896C119.626 37.4896 120.741 36.9721 121.464 35.9371C122.198 34.9022 122.565 33.2894 122.565 31.0988C122.565 28.8982 122.193 27.2754 121.449 26.2303C120.716 25.1752 119.616 24.6477 118.148 24.6477C115.164 24.6477 113.672 26.7981 113.672 31.0988Z" fill="black"/>
<path d="M142.416 42.1471L137.909 26.2755H137.773C137.984 28.9786 138.09 31.0787 138.09 32.5759V42.1471H132.814V20.1108H140.742L145.34 35.7563H145.46L149.967 20.1108H157.91V42.1471H152.439V32.4855C152.439 31.9831 152.444 31.4254 152.454 30.8124C152.474 30.1995 152.544 28.6972 152.665 26.3057H152.529L148.083 42.1471H142.416Z" fill="black"/>
<path d="M178.952 34.9876C178.952 37.2987 178.158 39.0723 176.57 40.3082C174.993 41.5342 172.712 42.1471 169.727 42.1471H162.658V20.1108H177.158V24.8888H168.642V28.2501H169.501C172.586 28.2501 174.932 28.8128 176.54 29.9382C178.148 31.0536 178.952 32.7367 178.952 34.9876ZM168.642 37.5499H169.441C170.687 37.5499 171.581 37.3439 172.124 36.9319C172.667 36.52 172.938 35.912 172.938 35.1082C172.938 34.3043 172.646 33.7114 172.064 33.3296C171.491 32.9477 170.607 32.7568 169.411 32.7568H168.642V37.5499Z" fill="black"/>
<path d="M196.165 42.1471L195.08 38.0172H187.92L186.805 42.1471H180.263L187.453 20.0203H195.396L202.676 42.1471H196.165ZM193.844 33.1336L192.894 29.5162C192.673 28.7123 192.402 27.6723 192.08 26.3961C191.769 25.12 191.563 24.2055 191.462 23.6529C191.372 24.1653 191.191 25.0094 190.92 26.1851C190.658 27.3608 190.07 29.6769 189.156 33.1336H193.844Z" fill="black"/>
<path d="M223.959 42.1471H217.975V33.1638H211.057V42.1471H205.073V20.1108H211.057V28.2802H217.975V20.1108H223.959V42.1471Z" fill="black"/>
<path d="M248 42.1471H241.262L234.721 30.9782V42.1471H228.737V20.1108H234.721V30.7823L241.021 20.1108H247.563L240.765 30.6315L248 42.1471Z" fill="black"/>
</svg>
